<svg xmlns="http://www.w3.org/2000/svg" xmlns:xlink="http://www.w3.org/1999/xlink" width="500" zoomAndPan="magnify" viewBox="0 0 375 374.999991" height="500" preserveAspectRatio="xMidYMid meet" version="1.0"><defs><clipPath id="6cadcacf28"><path d="M 155.378906 139 L 269.554688 139 L 269.554688 253.601562 L 155.378906 253.601562 Z M 155.378906 139 " clip-rule="nonzero"/></clipPath><clipPath id="058b67d895"><path d="M 183.941406 247.546875 L 263.601562 168.09375 C 271.128906 160.589844 271.132812 148.402344 263.617188 140.886719 L 261.78125 139.046875 L 155.75 245.074219 L 157.609375 246.929688 C 165.761719 255.089844 176.273438 255.214844 183.941406 247.546875 " clip-rule="nonzero"/></clipPath><clipPath id="74ffef9a71"><path d="M 105.738281 174.726562 L 160.894531 174.726562 L 160.894531 235.953125 L 105.738281 235.953125 Z M 105.738281 174.726562 " clip-rule="nonzero"/></clipPath><clipPath id="3a26594dbd"><path d="M 111.214844 177.984375 C 104.132812 185.070312 104.410156 193.734375 111.03125 200.347656 L 146.335938 235.65625 L 160.679688 221.3125 L 114.28125 174.910156 Z M 111.214844 177.984375 " clip-rule="nonzero"/></clipPath><clipPath id="1b78f9d464"><path d="M 163.652344 121.226562 L 252.457031 121.226562 L 252.457031 202.859375 L 163.652344 202.859375 Z M 163.652344 121.226562 " clip-rule="nonzero"/></clipPath><clipPath id="6dadf7819a"><path d="M 250.882812 128.148438 C 242.597656 119.863281 231.71875 119.617188 223.933594 127.410156 L 163.972656 187.363281 L 179.300781 202.691406 L 252.363281 129.636719 Z M 250.882812 128.148438 " clip-rule="nonzero"/></clipPath><clipPath id="5e266c8777"><path d="M 123.390625 157 L 184.613281 157 L 184.613281 212 L 123.390625 212 Z M 123.390625 157 " clip-rule="nonzero"/></clipPath><clipPath id="c514602050"><path d="M 126.902344 162.296875 C 133.984375 155.214844 142.648438 155.496094 149.269531 162.113281 L 184.578125 197.425781 L 170.234375 211.769531 L 123.828125 165.371094 Z M 126.902344 162.296875 " clip-rule="nonzero"/></clipPath></defs><g clip-path="url(#6cadcacf28)"><g clip-path="url(#058b67d895)"><path fill="#ef4f67" d="M 101.328125 116.8125 L 273.964844 116.8125 L 273.964844 258.015625 L 101.328125 258.015625 Z M 101.328125 116.8125 " fill-opacity="1" fill-rule="nonzero"/></g></g><g clip-path="url(#74ffef9a71)"><g clip-path="url(#3a26594dbd)"><path fill="#ef4f67" d="M 101.328125 116.8125 L 273.964844 116.8125 L 273.964844 258.015625 L 101.328125 258.015625 Z M 101.328125 116.8125 " fill-opacity="1" fill-rule="nonzero"/></g></g><g clip-path="url(#1b78f9d464)"><g clip-path="url(#6dadf7819a)"><path fill="#ef4f67" d="M 101.328125 116.8125 L 273.964844 116.8125 L 273.964844 258.015625 L 101.328125 258.015625 Z M 101.328125 116.8125 " fill-opacity="1" fill-rule="nonzero"/></g></g><g clip-path="url(#5e266c8777)"><g clip-path="url(#c514602050)"><path fill="#ef4f67" d="M 101.328125 116.8125 L 273.964844 116.8125 L 273.964844 258.015625 L 101.328125 258.015625 Z M 101.328125 116.8125 " fill-opacity="1" fill-rule="nonzero"/></g></g></svg>